<svg xmlns="http://www.w3.org/2000/svg" viewBox="0 0 128 128">
  <defs>
    <linearGradient id="grad" x1="0%" y1="0%" x2="100%" y2="100%">
      <stop offset="0%" style="stop-color:#ffa116;stop-opacity:1" />
      <stop offset="100%" style="stop-color:#ffb84d;stop-opacity:1" />
    </linearGradient>
  </defs>
  <rect width="128" height="128" rx="24" fill="url(#grad)"/>
  <g fill="white" opacity="0.95">
    <!-- Code brackets from code-block.svg (scaled and positioned) -->
    <path transform="translate(12, 70) scale(0.18)" d="M58.34,101.66l-32-32a8,8,0,0,1,0-11.32l32-32A8,8,0,0,1,69.66,37.66L43.31,64,69.66,90.34a8,8,0,0,1-11.32,11.32Z"/>
    <path transform="translate(90, 70) scale(0.18)" d="M98.34,101.66a8,8,0,0,0,11.32,0l32-32a8,8,0,0,0,0-11.32l-32-32A8,8,0,0,0,98.34,37.66L124.69,64,98.34,90.34Z"/>

    <!-- Users from users-three.svg (scaled and positioned at top) -->
    <!-- Center person -->
    <circle cx="64" cy="32" r="12"/>
    <path d="M 50 68 Q 50 52 64 52 Q 78 52 78 68" stroke="white" stroke-width="4" fill="none"/>

    <!-- Left person (smaller) -->
    <circle cx="36" cy="38" r="9"/>
    <path d="M 26 68 Q 26 56 36 56 Q 46 56 46 68" stroke="white" stroke-width="3" fill="none"/>

    <!-- Right person (smaller) -->
    <circle cx="92" cy="38" r="9"/>
    <path d="M 82 68 Q 82 56 92 56 Q 102 56 102 68" stroke="white" stroke-width="3" fill="none"/>
  </g>
</svg>
